<mxfile host="app.diagrams.net" modified="2022-07-18T20:32:37.502Z" agent="5.0 (Windows NT 10.0; Win64; x64) AppleWebKit/537.36 (KHTML, like Gecko) Chrome/103.0.5060.114 Safari/537.36 Edg/103.0.1264.62" etag="h5VBdmfPYiT2JwfFDS0O" version="20.1.1" type="github">
  <diagram id="5q3O9xvv9Q0E5lUiATzQ" name="Page-1">
    <mxGraphModel dx="1374" dy="786" grid="1" gridSize="10" guides="1" tooltips="1" connect="1" arrows="1" fold="1" page="1" pageScale="1" pageWidth="827" pageHeight="1169" math="0" shadow="0">
      <root>
        <mxCell id="0" />
        <mxCell id="1" parent="0" />
        <mxCell id="MH6xbcQdjxOINclTw3gt-11" style="edgeStyle=orthogonalEdgeStyle;rounded=0;orthogonalLoop=1;jettySize=auto;html=1;" parent="1" source="MH6xbcQdjxOINclTw3gt-1" target="MH6xbcQdjxOINclTw3gt-8" edge="1">
          <mxGeometry relative="1" as="geometry" />
        </mxCell>
        <mxCell id="MH6xbcQdjxOINclTw3gt-12" style="edgeStyle=orthogonalEdgeStyle;rounded=0;orthogonalLoop=1;jettySize=auto;html=1;" parent="1" source="MH6xbcQdjxOINclTw3gt-1" target="MH6xbcQdjxOINclTw3gt-3" edge="1">
          <mxGeometry relative="1" as="geometry" />
        </mxCell>
        <mxCell id="MH6xbcQdjxOINclTw3gt-13" style="edgeStyle=orthogonalEdgeStyle;rounded=0;orthogonalLoop=1;jettySize=auto;html=1;" parent="1" source="MH6xbcQdjxOINclTw3gt-1" target="MH6xbcQdjxOINclTw3gt-4" edge="1">
          <mxGeometry relative="1" as="geometry" />
        </mxCell>
        <mxCell id="MH6xbcQdjxOINclTw3gt-14" style="edgeStyle=orthogonalEdgeStyle;rounded=0;orthogonalLoop=1;jettySize=auto;html=1;" parent="1" source="MH6xbcQdjxOINclTw3gt-1" target="MH6xbcQdjxOINclTw3gt-2" edge="1">
          <mxGeometry relative="1" as="geometry" />
        </mxCell>
        <mxCell id="MH6xbcQdjxOINclTw3gt-1" value="Utilisateur non authentifié /&lt;br&gt;Invité" style="shape=umlActor;html=1;verticalLabelPosition=bottom;verticalAlign=top;align=center;" parent="1" vertex="1">
          <mxGeometry x="399" y="10" width="21" height="60" as="geometry" />
        </mxCell>
        <mxCell id="MH6xbcQdjxOINclTw3gt-2" value="Se connecter" style="ellipse;whiteSpace=wrap;html=1;" parent="1" vertex="1">
          <mxGeometry x="590" y="120" width="140" height="70" as="geometry" />
        </mxCell>
        <mxCell id="MH6xbcQdjxOINclTw3gt-3" value="Parcourir les modules" style="ellipse;whiteSpace=wrap;html=1;" parent="1" vertex="1">
          <mxGeometry x="60" y="130" width="140" height="70" as="geometry" />
        </mxCell>
        <mxCell id="MH6xbcQdjxOINclTw3gt-4" value="Parcourir les articles" style="ellipse;whiteSpace=wrap;html=1;" parent="1" vertex="1">
          <mxGeometry x="240" y="160" width="140" height="70" as="geometry" />
        </mxCell>
        <mxCell id="MH6xbcQdjxOINclTw3gt-8" value="Prendre rendez-vous" style="ellipse;whiteSpace=wrap;html=1;" parent="1" vertex="1">
          <mxGeometry x="429" y="160" width="140" height="70" as="geometry" />
        </mxCell>
        <mxCell id="MH6xbcQdjxOINclTw3gt-15" value="Ecrire un commentaire" style="ellipse;whiteSpace=wrap;html=1;" parent="1" vertex="1">
          <mxGeometry x="240" y="300" width="140" height="70" as="geometry" />
        </mxCell>
        <mxCell id="MH6xbcQdjxOINclTw3gt-16" value="&amp;lt;&amp;lt;extend&amp;gt;&amp;gt;" style="edgeStyle=none;html=1;startArrow=open;endArrow=none;startSize=12;verticalAlign=bottom;dashed=1;labelBackgroundColor=none;rounded=0;exitX=0.5;exitY=1;exitDx=0;exitDy=0;entryX=0.5;entryY=0;entryDx=0;entryDy=0;" parent="1" source="MH6xbcQdjxOINclTw3gt-4" target="MH6xbcQdjxOINclTw3gt-15" edge="1">
          <mxGeometry width="160" relative="1" as="geometry">
            <mxPoint x="350" y="290" as="sourcePoint" />
            <mxPoint x="510" y="290" as="targetPoint" />
          </mxGeometry>
        </mxCell>
        <mxCell id="qj2vqvKQBhkDf6FcHW5L-2" value="&amp;lt;&amp;lt;include&amp;gt;&amp;gt;" style="edgeStyle=none;html=1;endArrow=open;verticalAlign=bottom;dashed=1;labelBackgroundColor=none;rounded=0;exitX=0.5;exitY=1;exitDx=0;exitDy=0;" edge="1" parent="1" source="MH6xbcQdjxOINclTw3gt-2" target="qj2vqvKQBhkDf6FcHW5L-3">
          <mxGeometry width="160" relative="1" as="geometry">
            <mxPoint x="430" y="440" as="sourcePoint" />
            <mxPoint x="590" y="440" as="targetPoint" />
            <mxPoint as="offset" />
          </mxGeometry>
        </mxCell>
        <mxCell id="qj2vqvKQBhkDf6FcHW5L-3" value="S&#39;enregistrer" style="ellipse;whiteSpace=wrap;html=1;" vertex="1" parent="1">
          <mxGeometry x="590" y="290" width="140" height="70" as="geometry" />
        </mxCell>
      </root>
    </mxGraphModel>
  </diagram>
</mxfile>
